<svg id="month" xmlns="http://www.w3.org/2000/svg" width="96" height="91.125" viewBox="0 0 96 91.125">
  <path id="Path_40" data-name="Path 40" d="M73.406,18.625V13H67.781v5.625H28.219V13H22.594v5.625H0v85.5H96v-85.5ZM22.594,24.25v5.625h5.625V24.25H67.781v5.625h5.625V24.25H90.375V35.5H5.625V24.25ZM5.625,98.5V41.125h84.75V98.5Z" transform="translate(0 -13)" fill="#ff7523"/>
  <path id="Path_78" data-name="Path 78" d="M.821,1.752a7.637,7.637,0,0,1,2.77-5.619A9.946,9.946,0,0,1,10.069-5.9a10.231,10.231,0,0,1,4.585.956A6.89,6.89,0,0,1,17.58-2.345a7,7,0,0,1,.995,3.707A6.538,6.538,0,0,1,17.19,5.537,6.223,6.223,0,0,1,13.581,7.8v.2A7.209,7.209,0,0,1,17.6,10.453a7.4,7.4,0,0,1,1.483,4.8,7.916,7.916,0,0,1-1.015,4,6.989,6.989,0,0,1-3.044,2.79,10.8,10.8,0,0,1-4.877,1.015,10.389,10.389,0,0,1-6.789-2.166A8.383,8.383,0,0,1,.392,14.745H3.826a5.891,5.891,0,0,0,1.912,3.824,6.266,6.266,0,0,0,4.37,1.483,5.63,5.63,0,0,0,4.156-1.424,4.989,4.989,0,0,0,1.424-3.687,4.673,4.673,0,0,0-1.951-4.214A10.819,10.819,0,0,0,7.845,9.439h-.9V6.473h.936a10.544,10.544,0,0,0,5.424-1.19,3.916,3.916,0,0,0,1.834-3.57A4.308,4.308,0,0,0,13.8-1.6,5.446,5.446,0,0,0,9.952-2.852,5.855,5.855,0,0,0,6.05-1.6,5.06,5.06,0,0,0,4.294,1.752ZM22.945-2.111V-5.35h7.336V22.861h-3.59V-2.111Z" transform="translate(32.619 45.599)" fill="#ff7523"/>
</svg>
